# xmcd CD database file
#
# Track frame offsets:
#	150
#	18870
#	39898
#	67210
#	73185
#	100728
#	128690
#	149583
#	167195
#	195683
#
# Disc length: 2882 seconds
#
# Revision: 0
# Processed by: cddbd v1.4PL0 Copyright (c) Steve Scherf et al.
# Submitted via: CDex 1.50
#
DISCID=8f0b400a
DTITLE=Michael Pedicin Jr. - City Song
DYEAR=1987
DGENRE=Jazz
TTITLE0=Relay
TTITLE1=Out Of Line
TTITLE2=Japan
TTITLE3=Prelude
TTITLE4=She's Out Of My Life
TTITLE5=Chamonix
TTITLE6=Would You Like To
TTITLE7=Citty Song
TTITLE8=On Third Thought
TTITLE9=Free Fall
EXTD=YEAR: 1987
EXTT0=
EXTT1=
EXTT2=
EXTT3=
EXTT4=
EXTT5=
EXTT6=
EXTT7=
EXTT8=
EXTT9=
PLAYORDER=
